<?xml version="1.0" encoding="UTF-8" standalone="no"?>
<!-- Created with Inkscape (http://www.inkscape.org/) -->

<svg
   width="24.615845mm"
   height="14.408813mm"
   viewBox="0 0 24.615845 14.408813"
   version="1.1"
   id="svg5"
   xml:space="preserve"
   xmlns:inkscape="http://www.inkscape.org/namespaces/inkscape"
   xmlns:sodipodi="http://sodipodi.sourceforge.net/DTD/sodipodi-0.dtd"
   xmlns="http://www.w3.org/2000/svg"
   xmlns:svg="http://www.w3.org/2000/svg"><sodipodi:namedview
     id="namedview7"
     pagecolor="#ffffff"
     bordercolor="#000000"
     borderopacity="0.25"
     inkscape:showpageshadow="2"
     inkscape:pageopacity="0.0"
     inkscape:pagecheckerboard="0"
     inkscape:deskcolor="#d1d1d1"
     inkscape:document-units="mm"
     showgrid="false" /><defs
     id="defs2" /><g
     inkscape:label="Capa 1"
     inkscape:groupmode="layer"
     id="layer1"
     transform="translate(-729.03707,-651.01848)"><path
       style="fill:#ffffff;stroke-width:0.0481016"
       d="m 730.04306,664.9009 c -0.9267,-3.15301 -1.20873,-6.14239 -0.86435,-9.16144 0.15888,-1.39305 0.34999,-2.34596 0.77369,-3.85821 0.22852,-0.81561 0.25478,-0.88043 0.34833,-0.85975 0.0555,0.0119 1.89461,0.77182 4.08659,1.68782 l 3.98542,1.66544 h 2.9703 2.97028 l 3.98743,-1.66152 c 2.19306,-0.91385 4.03223,-1.67282 4.08702,-1.68661 0.09,-0.0227 0.11477,0.0271 0.25952,0.51911 0.9264,3.15211 1.20842,6.14188 0.86408,9.16062 -0.1589,1.3928 -0.35,2.34599 -0.77348,3.85743 -0.23056,0.8229 -0.25374,0.87965 -0.34944,0.85562 -0.0565,-0.0137 -1.89534,-0.77331 -4.08661,-1.68704 l -3.9841,-1.66134 h -2.97155 -2.97155 l -3.98637,1.66539 c -2.19249,0.91597 -4.03107,1.67534 -4.08571,1.68747 -0.0892,0.0198 -0.1157,-0.0334 -0.2595,-0.52299 z m 4.27915,-2.70113 3.15065,-1.31365 0.0137,-0.97083 0.0137,-0.97086 h -0.89088 -0.89088 v -0.72152 -0.72153 h 0.89088 0.89088 l -0.0137,-0.97085 -0.0137,-0.97085 -3.14835,-1.31229 c -1.73158,-0.72177 -3.156,-1.30462 -3.1654,-1.29523 -0.0453,0.0452 -0.31488,1.33754 -0.41732,1.99982 -0.19281,1.2469 -0.24054,1.91983 -0.23714,3.34308 0.004,1.44574 0.0705,2.27113 0.28184,3.47652 0.10145,0.57828 0.35353,1.74315 0.37706,1.74217 0.004,-1.7e-4 1.42579,-0.59147 3.15866,-1.31398 z m 17.24313,1.20607 c 0.0137,-0.0595 0.0769,-0.33549 0.14081,-0.61329 0.14152,-0.61447 0.34217,-1.88695 0.42111,-2.66964 0.0321,-0.31746 0.0576,-1.19412 0.057,-1.9481 -10e-4,-1.47249 -0.0657,-2.27595 -0.28062,-3.50059 -0.10145,-0.57829 -0.35355,-1.74316 -0.37706,-1.74218 -0.004,2e-4 -1.42578,0.59148 -3.15865,1.31399 l -3.15066,1.31365 -0.0137,0.97085 -0.0137,0.97085 h 0.90288 0.9029 v 0.72153 0.72152 h -0.9029 -0.90288 l 0.0137,0.9709 0.0137,0.97091 3.12661,1.30893 c 1.71962,0.71989 3.14242,1.31117 3.16175,1.31391 0.0193,0.004 0.0463,-0.0437 0.0598,-0.1033 z m -7.81522,-5.18293 v -2.40509 h -2.40509 -2.40509 v 2.40509 2.40508 h 2.40509 2.40509 z"
       id="path1639"
       inkscape:export-filename="ELEGANCIA.svg"
       inkscape:export-xdpi="96"
       inkscape:export-ydpi="96" /></g></svg>
