<?xml version="1.0" encoding="UTF-8" standalone="no"?>
<!-- Created with Inkscape (http://www.inkscape.org/) -->

<svg
   width="10.617493mm"
   height="9.9776001mm"
   viewBox="0 0 10.617493 9.9776001"
   version="1.1"
   id="svg5"
   xml:space="preserve"
   xmlns:inkscape="http://www.inkscape.org/namespaces/inkscape"
   xmlns:sodipodi="http://sodipodi.sourceforge.net/DTD/sodipodi-0.dtd"
   xmlns="http://www.w3.org/2000/svg"
   xmlns:svg="http://www.w3.org/2000/svg"><sodipodi:namedview
     id="namedview7"
     pagecolor="#ffffff"
     bordercolor="#000000"
     borderopacity="0.25"
     inkscape:showpageshadow="2"
     inkscape:pageopacity="0.0"
     inkscape:pagecheckerboard="0"
     inkscape:deskcolor="#d1d1d1"
     inkscape:document-units="mm"
     showgrid="false" /><defs
     id="defs2" /><g
     inkscape:label="Capa 1"
     inkscape:groupmode="layer"
     id="layer1"
     transform="translate(-764.00319,-655.39952)"><path
       style="fill:#ffffff;stroke-width:0.0207931"
       d="m 766.42385,665.34529 c -0.92731,-0.16557 -1.63857,-0.88398 -1.78876,-1.80677 -0.0431,-0.26474 -0.0397,-0.39411 0.0132,-0.48767 0.0824,-0.14675 0.11662,-0.15561 0.64378,-0.1673 l 0.46898,-0.0106 0.15809,-0.0782 c 0.35665,-0.17635 0.56283,-0.56148 0.4979,-0.93007 -0.0136,-0.0769 -0.0835,-0.26343 -0.1722,-0.45906 l -0.14937,-0.32954 -0.19955,-0.11767 c -0.52186,-0.30764 -0.93242,-0.69318 -1.26052,-1.18372 -0.25864,-0.38669 -0.44519,-0.81775 -0.56293,-1.30085 l -0.0579,-0.23784 -0.008,-1.31427 c -0.008,-1.47119 -0.0146,-1.40342 0.13977,-1.4822 0.0991,-0.0505 0.18792,-0.0532 0.27694,-0.008 0.0367,0.0185 0.35661,0.32062 0.71114,0.67138 0.62753,0.62083 0.85229,0.81974 1.21639,1.07651 0.18825,0.13277 0.60039,0.38853 0.74469,0.46214 l 0.0871,0.0445 v -0.17252 c 0,-0.517 0.1627,-1.16376 0.42356,-1.68378 0.15605,-0.31108 0.20823,-0.35683 0.3923,-0.34396 0.0902,0.007 0.13243,0.0207 0.17345,0.059 0.0735,0.0689 0.0811,0.0855 0.16443,0.36016 0.30727,1.01373 1.02822,1.8697 1.97734,2.34766 l 0.14523,0.0731 0.39438,-0.77252 c 0.21691,-0.42489 0.42996,-0.82591 0.47345,-0.89117 0.12005,-0.18006 0.34132,-0.37327 0.53988,-0.4713 0.25255,-0.12467 0.3967,-0.15721 0.69102,-0.15587 0.21144,8.1e-4 0.27489,0.009 0.41585,0.0558 0.41905,0.13778 0.74566,0.45089 0.91447,0.87662 0.0832,0.20986 0.11332,0.41509 0.11411,0.77932 l 8.1e-4,0.32141 0.28898,0.29198 c 0.22957,0.23196 0.29439,0.31017 0.31519,0.38037 0.0704,0.23756 -0.14308,0.45108 -0.38065,0.38066 -0.0702,-0.0208 -0.14841,-0.0856 -0.38037,-0.31519 l -0.29199,-0.289 h -0.39938 -0.39938 v 0.25631 c 0,1.27975 -0.49493,2.47344 -1.39387,3.3617 -0.37318,0.36875 -0.73472,0.62542 -1.22638,0.87063 -0.6168,0.3076 -1.18967,0.45505 -1.9348,0.49798 -0.24057,0.0138 -0.29145,0.023 -0.34572,0.0616 -0.12731,0.0906 -0.13113,0.11662 -0.13113,0.86924 0,0.6458 -0.003,0.68632 -0.0429,0.77014 -0.0311,0.0643 -0.0671,0.10026 -0.13139,0.1314 -0.0811,0.0393 -0.12454,0.0427 -0.52377,0.041 -0.27758,-0.001 -0.49556,-0.0132 -0.60164,-0.0315 z m 0.67578,-1.09877 c 0,-0.29752 0.009,-0.55412 0.0233,-0.61861 0.0561,-0.26394 0.23638,-0.50329 0.4713,-0.62559 0.16435,-0.0856 0.30563,-0.11873 0.50522,-0.11873 0.35528,0 0.84685,-0.0834 1.22496,-0.20767 1.26786,-0.4169 2.26219,-1.43687 2.64199,-2.71012 0.11965,-0.40101 0.14881,-0.63184 0.15952,-1.26163 0.0105,-0.64528 0.019,-0.68089 0.17199,-0.7669 0.0737,-0.0414 0.10751,-0.0441 0.57975,-0.0441 h 0.50141 v -0.22436 c 0,-0.13437 -0.0132,-0.27338 -0.0318,-0.34658 -0.0719,-0.27584 -0.25056,-0.50148 -0.48347,-0.61042 -0.10409,-0.0487 -0.14496,-0.0557 -0.3279,-0.0557 -0.19997,-10e-5 -0.21589,0.003 -0.36784,0.0784 -0.10554,0.0521 -0.18894,0.11214 -0.24845,0.17847 -0.0646,0.072 -0.23474,0.38355 -0.60996,1.11674 -0.48906,0.95558 -0.52534,1.0197 -0.603,1.06532 -0.0802,0.0471 -0.093,0.0482 -0.42651,0.0367 -1.79768,-0.062 -3.52032,-0.73394 -4.87499,-1.90158 -0.11425,-0.0985 -0.34115,-0.30895 -0.50425,-0.4677 l -0.2965,-0.28867 v 0.67388 c 0,0.83562 0.0255,1.07215 0.15971,1.48372 0.45677,1.40021 1.83283,2.32555 3.29162,2.21344 0.27499,-0.0211 0.39387,-0.0417 0.6553,-0.11332 0.29948,-0.082 0.45992,-0.15242 0.90106,-0.39535 0.15323,-0.0844 0.20616,-0.0888 0.33193,-0.028 0.0685,0.0331 0.10198,0.0665 0.13087,0.12994 0.05,0.11003 0.0493,0.16653 -0.003,0.27408 -0.0489,0.10092 -0.12005,0.15242 -0.44555,0.32201 -0.40364,0.21031 -0.81673,0.34185 -1.27327,0.40543 -0.31272,0.0435 -0.94434,0.0322 -1.21846,-0.022 -0.10066,-0.0199 -0.18765,-0.0314 -0.19339,-0.0257 -0.005,0.005 0.008,0.0653 0.0306,0.13241 0.18081,0.53789 0.0306,1.1449 -0.38429,1.55352 -0.29273,0.28826 -0.66248,0.42946 -1.1247,0.42946 h -0.19802 l 0.0146,0.078 c 0.0222,0.11807 0.10936,0.31192 0.20815,0.46268 0.20929,0.31942 0.53098,0.55159 0.90469,0.65293 0.16614,0.0451 0.19354,0.0481 0.46265,0.0512 l 0.24431,0.003 z m 2.13345,-5.95788 c -0.47628,-0.37848 -0.90023,-0.89393 -1.16748,-1.41942 -0.0567,-0.11147 -0.10897,-0.20267 -0.11609,-0.20272 -0.007,-5e-5 -0.028,0.0591 -0.0462,0.13152 -0.0673,0.26804 -0.0966,0.52557 -0.0967,0.85063 l -8e-5,0.32721 0.078,0.0327 c 0.27386,0.11516 0.90127,0.29913 1.27357,0.37352 0.24274,0.0485 0.24696,0.0433 0.0749,-0.0935 z"
       id="path1814"
       inkscape:export-filename=".\LIBERTAD.svg"
       inkscape:export-xdpi="96"
       inkscape:export-ydpi="96" /></g></svg>
