<?xml version="1.0" encoding="UTF-8" standalone="no"?>
<!-- Created with Inkscape (http://www.inkscape.org/) -->

<svg
   width="408.50613mm"
   height="537.96826mm"
   viewBox="0 0 408.50613 537.96826"
   version="1.1"
   id="svg5"
   xml:space="preserve"
   xmlns:inkscape="http://www.inkscape.org/namespaces/inkscape"
   xmlns:sodipodi="http://sodipodi.sourceforge.net/DTD/sodipodi-0.dtd"
   xmlns="http://www.w3.org/2000/svg"
   xmlns:svg="http://www.w3.org/2000/svg"><sodipodi:namedview
     id="namedview7"
     pagecolor="#ffffff"
     bordercolor="#000000"
     borderopacity="0.25"
     inkscape:showpageshadow="2"
     inkscape:pageopacity="0.0"
     inkscape:pagecheckerboard="0"
     inkscape:deskcolor="#d1d1d1"
     inkscape:document-units="mm"
     showgrid="false" /><defs
     id="defs2" /><g
     inkscape:label="Capa 1"
     inkscape:groupmode="layer"
     id="layer1"
     transform="translate(-165.78136,375.30846)"><path
       style="fill:#ffffff;stroke-width:0.264583"
       d="m 264.33991,162.35715 c 0.0906,-0.14652 -0.007,-0.33229 -0.21662,-0.41275 -0.34941,-0.13409 -0.38637,-0.60783 -0.20661,-2.64951 0.0138,-0.15732 0.35261,-0.45183 0.75279,-0.6545 1.97308,-0.99917 4.90665,-3.89787 6.68293,-6.60347 1.38329,-2.10701 3.19952,-6.21694 3.85693,-8.72789 0.39381,-1.50408 1.53131,-7.7588 1.87659,-10.31875 0.10797,-0.80036 0.26059,-48.484902 0.33914,-105.965623 l 0.14285,-104.51042 0.79375,-0.0671 c 0.43656,-0.0369 1.21047,-0.12978 1.71979,-0.20643 2.16935,-0.32652 2.8284,-0.41624 3.70417,-0.50427 0.50932,-0.0512 0.98557,-0.11959 1.05833,-0.152 0.0728,-0.0324 0.2372,-0.0396 0.36542,-0.0161 0.12821,0.0236 0.84259,-0.0764 1.5875,-0.22222 0.74491,-0.14582 1.77109,-0.32653 2.28041,-0.40161 3.24668,-0.47864 13.79967,-2.33056 14.68012,-2.5762 0.58441,-0.16306 2.01509,-0.45686 3.17926,-0.65289 2.54754,-0.42899 2.79805,-0.48207 3.30729,-0.7009 0.21828,-0.0938 0.87313,-0.22643 1.45521,-0.29475 0.58208,-0.0683 1.53458,-0.24521 2.11667,-0.39312 0.58208,-0.1479 1.0881,-0.27474 1.12448,-0.28186 0.0364,-0.007 0.0959,-0.0228 0.13229,-0.0347 0.0364,-0.0119 0.42333,-0.0781 0.85989,-0.14689 1.93122,-0.30443 7.96838,-1.77271 8.26511,-2.0101 0.22558,-0.1805 0.36973,-0.14983 0.46289,0.0984 0.0744,0.19828 0.1651,5.65881 0.20156,12.13448 l 0.0663,11.77396 3.43958,-0.0177 c 1.89177,-0.01 5.16599,-0.10478 7.27604,-0.21127 5.68565,-0.28697 8.76326,-0.55044 19.18229,-1.64222 2.56135,-0.26842 7.1483,-0.92675 7.54062,-1.08227 0.51446,-0.20397 1.53541,-0.35071 2.43002,-0.34925 0.3906,0 0.78136,-0.11404 0.86836,-0.2548 0.087,-0.14073 0.33292,-0.18883 0.54655,-0.10684 0.21362,0.082 0.59677,0.0602 0.85143,-0.0483 0.49942,-0.21283 1.28286,-0.38158 1.91823,-0.41312 0.21828,-0.0109 0.57547,-0.0897 0.79375,-0.17521 0.21828,-0.0855 0.635,-0.18351 0.92604,-0.21778 1.99601,-0.23492 3.21445,-0.46921 3.45911,-0.66513 0.30509,-0.24432 0.90702,0.20272 0.90577,0.6727 0,0.1528 0.22969,0.75406 0.51131,1.33615 0.93805,1.93886 2.85866,6.31425 4.123,9.3927 0.68731,1.67349 1.46315,3.51896 1.72405,4.10105 0.26094,0.58208 0.71496,1.71317 1.00899,2.51354 0.29403,0.80036 1.37589,3.5887 2.40416,6.19633 1.02825,2.6076 1.83031,4.78036 1.78234,4.82833 -0.15443,0.15446 -3.40995,0.7784 -5.20311,0.99721 -0.3638,0.0444 -0.66146,0.10589 -0.66146,0.13661 0,0.0307 -0.53578,0.0986 -1.19062,0.15089 -0.65484,0.0522 -1.60734,0.17362 -2.11667,0.26977 -1.68814,0.31863 -1.96535,0.36541 -4.63021,0.78152 -1.4552,0.22725 -3.18161,0.47125 -3.83645,0.54227 -0.65485,0.071 -2.55985,0.29744 -4.23334,0.50318 -1.67349,0.20574 -3.75708,0.4444 -4.63021,0.53031 -0.87312,0.0859 -1.94468,0.1997 -2.38125,0.25283 -0.43656,0.0532 -2.2225,0.24059 -3.96875,0.41653 -1.74625,0.17595 -3.35359,0.38397 -3.57187,0.46223 -0.21828,0.0783 -0.84034,0.1175 -1.38237,0.0872 -0.54202,-0.0303 -1.13734,0.0393 -1.32292,0.15481 -0.18557,0.11543 -0.75414,0.23989 -1.26346,0.27654 -1.7708,0.1274 -4.37364,0.33814 -5.68854,0.46056 -4.63608,0.43164 -5.89774,0.53851 -9.26041,0.78446 -5.02695,0.36769 -6.07013,0.46572 -6.26999,0.58928 -0.28147,0.17394 -0.2132,155.744313 0.0704,160.437463 0.25754,4.26188 0.61701,7.14629 1.33538,10.71563 0.54311,2.69843 1.67362,6.34907 2.15077,6.94531 0.14557,0.1819 0.19238,0.33073 0.10401,0.33073 -0.21286,0 1.28619,2.96275 2.34275,4.63021 1.26,1.98855 3.95428,4.73564 5.86655,5.98156 l 1.70106,1.10829 -0.0568,1.57361 c -0.059,1.63446 -0.57401,2.32204 -1.07236,1.43158 -0.31273,-0.55883 -1.17908,-0.56576 -1.48902,-0.0119 -0.21905,0.39137 -0.25154,0.39137 -0.40171,0 -0.20757,-0.54095 -1.20505,-0.55592 -1.41026,-0.0212 -0.13734,0.35795 -0.19132,0.35533 -0.46776,-0.0228 -0.36872,-0.50427 -1.91097,-0.4351 -1.80773,0.0811 0.0936,0.46784 -0.37508,0.41236 -0.5587,-0.0661 -0.20203,-0.52647 -1.13898,-0.50763 -1.43925,0.029 -0.21905,0.39137 -0.25154,0.39137 -0.40172,0 -0.21735,-0.56642 -1.14157,-0.54335 -1.48979,0.0372 -0.2645,0.44098 -0.29096,0.44098 -0.55546,0 -0.34825,-0.58057 -1.46921,-0.60391 -1.78637,-0.0372 -0.21904,0.39137 -0.25154,0.39137 -0.40171,0 -0.0899,-0.23421 -0.39936,-0.42585 -0.68773,-0.42585 -0.2884,0 -0.63156,0.19164 -0.76264,0.42585 -0.21905,0.39137 -0.25154,0.39137 -0.40172,0 -0.21735,-0.56642 -1.14157,-0.54335 -1.48979,0.0372 -0.2645,0.44098 -0.29096,0.44098 -0.55546,0 -0.34796,-0.5801 -1.20621,-0.60108 -1.52178,-0.0372 -0.21905,0.39137 -0.25154,0.39137 -0.40172,0 -0.20666,-0.53859 -1.4679,-0.56044 -1.67185,-0.029 -0.0838,0.21828 -0.26564,0.39687 -0.40417,0.39687 -0.13854,0 -0.18047,-0.11557 -0.0932,-0.25683 0.19113,-0.30924 -1.03706,-0.66011 -1.43971,-0.41124 -0.15615,0.0965 -0.21542,0.2863 -0.13171,0.42177 0.0837,0.13547 0.0389,0.2463 -0.0997,0.2463 -0.13853,0 -0.32041,-0.17859 -0.40417,-0.39687 -0.20204,-0.52647 -1.13898,-0.50763 -1.43926,0.029 -0.21905,0.39137 -0.25154,0.39137 -0.40171,0 -0.21828,-0.56886 -1.40597,-0.54369 -1.75438,0.0372 -0.2645,0.44098 -0.29096,0.44098 -0.55546,0 -0.34796,-0.5801 -1.20621,-0.60108 -1.52178,-0.0372 -0.21905,0.39137 -0.25154,0.39137 -0.40172,0 -0.20756,-0.54094 -1.20504,-0.55592 -1.41025,-0.0212 -0.13605,0.35457 -0.19542,0.34975 -0.47969,-0.039 -0.2336,-0.31946 -0.52412,-0.39355 -1.03786,-0.26459 -0.3924,0.0985 -0.64201,0.29462 -0.55472,0.43588 0.0873,0.14126 0.0454,0.25683 -0.0932,0.25683 -0.13854,0 -0.32041,-0.1786 -0.40418,-0.39688 -0.20278,-0.52842 -1.40335,-0.508 -1.70384,0.029 -0.21905,0.39137 -0.25154,0.39137 -0.40171,0 -0.20609,-0.53703 -1.20441,-0.55756 -1.40727,-0.029 -0.18362,0.4785 -0.65225,0.53399 -0.55869,0.0661 0.0412,-0.20579 -0.23371,-0.33073 -0.72761,-0.33073 -0.4939,0 -0.76877,0.12494 -0.7276,0.33073 0.0936,0.46784 -0.37508,0.41235 -0.5587,-0.0661 -0.20277,-0.52842 -1.40335,-0.508 -1.70383,0.029 -0.21905,0.39137 -0.25154,0.39137 -0.40172,0 -0.21736,-0.56642 -1.14157,-0.54335 -1.48979,0.0372 -0.2645,0.44098 -0.29096,0.44098 -0.55547,0 -0.34795,-0.5801 -1.20621,-0.60108 -1.52177,-0.0372 -0.21905,0.39137 -0.25154,0.39137 -0.40172,0 -0.21752,-0.56682 -1.14544,-0.54341 -1.47452,0.0372 -0.24824,0.43796 -0.28197,0.43659 -0.62328,-0.0251 -0.39995,-0.54107 -1.69942,-0.51535 -1.58795,0.0314 0.0945,0.46342 -0.37651,0.40238 -0.5587,-0.0724 -0.20203,-0.52646 -1.13898,-0.50763 -1.43925,0.029 -0.21905,0.39137 -0.25154,0.39137 -0.40172,0 -0.20608,-0.53703 -1.20441,-0.55756 -1.40726,-0.029 -0.18362,0.4785 -0.65225,0.53399 -0.5587,0.0661 0.10324,-0.51618 -1.43901,-0.58534 -1.80774,-0.0811 -0.27643,0.37804 -0.33041,0.38066 -0.46775,0.0228 -0.20447,-0.53281 -1.13991,-0.51908 -1.44225,0.0212 -0.21905,0.39137 -0.25154,0.39137 -0.40171,0 -0.21736,-0.56642 -1.14158,-0.54335 -1.48979,0.0372 -0.26451,0.44098 -0.29097,0.44098 -0.55547,0 -0.34824,-0.58058 -1.46921,-0.60392 -1.78636,-0.0372 -0.21905,0.39137 -0.25154,0.39137 -0.40172,0 -0.20608,-0.53702 -1.20441,-0.55755 -1.40726,-0.029 -0.0838,0.21828 -0.26565,0.39687 -0.40418,0.39687 -0.13854,0 -0.18338,-0.11083 -0.0997,-0.2463 0.0837,-0.13546 0.0243,-0.32527 -0.13171,-0.42177 -0.40264,-0.24887 -1.63084,0.102 -1.43971,0.41124 0.0873,0.14126 0.0454,0.25683 -0.0932,0.25683 -0.13853,0 -0.32041,-0.17859 -0.40417,-0.39687 -0.20204,-0.52647 -1.13898,-0.50763 -1.43926,0.029 -0.21905,0.39137 -0.25154,0.39137 -0.40171,0 -0.21829,-0.56885 -1.40597,-0.54369 -1.75438,0.0372 -0.2645,0.44098 -0.29096,0.44098 -0.55546,0 -0.34796,-0.5801 -1.20621,-0.60108 -1.52178,-0.0372 -0.21905,0.39137 -0.25154,0.39137 -0.40172,0 -0.20608,-0.53702 -1.20441,-0.55755 -1.40726,-0.029 -0.0838,0.21828 -0.32518,0.39687 -0.53647,0.39687 -0.2113,0 -0.31009,-0.1199 -0.2195,-0.26646 z m 213.50628,0.0201 c 0.0837,-0.13547 0.0312,-0.3211 -0.11668,-0.41249 -0.1479,-0.0914 -0.26749,-0.78425 -0.26575,-1.53963 l 0.003,-1.37345 1.65052,-0.89731 c 1.78149,-0.96851 5.89918,-3.59162 6.54529,-4.1696 0.21828,-0.19526 0.93168,-0.80195 1.58533,-1.34821 3.50573,-2.92978 7.42974,-7.39344 9.91264,-11.27588 1.41179,-2.2076 4.12475,-7.70906 4.51916,-9.16421 0.0196,-0.0728 0.10896,-0.31089 0.19831,-0.52917 1.05907,-2.5877 2.67446,-8.61883 3.22524,-12.04161 1.38052,-8.57901 1.60851,-22.810052 0.54256,-33.863602 -0.0702,-0.7276 -0.19849,-2.27541 -0.28514,-3.43958 -0.2907,-3.90512 -1.78745,-14.249 -2.60334,-17.99167 -0.0634,-0.29104 -0.19424,-1.12056 -0.2906,-1.8434 -0.0964,-0.72284 -0.21598,-1.3802 -0.2658,-1.46079 -0.0498,-0.0806 -0.16819,-0.67982 -0.26307,-1.3316 -0.0949,-0.65177 -0.40886,-2.19707 -0.69776,-3.434 -0.28887,-1.23693 -0.91863,-4.0349 -1.39949,-6.21771 -0.85048,-3.860751 -2.42072,-10.180401 -2.72828,-10.980211 -0.19838,-0.51591 -0.27585,-0.78766 -0.4495,-1.57636 -0.51847,-2.35529 -4.36647,-15.09908 -5.35604,-17.73822 -0.12726,-0.33941 -1.46431,-4.18343 -4.5094,-12.9645799 -0.37846,-1.09141 -0.75887,-2.04391 -0.84534,-2.11667 -0.0864,-0.0728 -0.17738,-0.25135 -0.20201,-0.39687 -0.20201,-1.19203 -7.02236,-17.8219401 -9.90936,-24.1617001 -0.41878,-0.91964 -0.76144,-1.78284 -0.76144,-1.91823 0,-0.13536 -0.11907,-0.24612 -0.26459,-0.24612 -0.14552,0 -0.26458,-0.17642 -0.26458,-0.39206 0,-0.69683 -7.05358,-15.20504 -11.06493,-22.75898 -2.79511,-5.26365 -3.84397,-7.16206 -4.16605,-7.54062 -0.18571,-0.21828 -0.64423,-0.99219 -1.01896,-1.71979 -1.28596,-2.49698 -1.18108,-2.44788 -3.3904,-1.58764 -1.05775,0.41185 -2.43075,0.96375 -3.05109,1.22643 -0.62032,0.2627 -1.21563,0.5026 -1.32292,0.53313 -0.10726,0.0305 -0.96893,0.34171 -1.91482,0.69149 -0.94588,0.34981 -1.89838,0.67649 -2.11666,0.72594 -0.21829,0.0495 -0.39688,0.10816 -0.39688,0.13044 0,0.0222 -0.17859,0.0785 -0.39687,0.12504 -0.21828,0.0465 -1.98914,0.6327 -3.93523,1.30268 -1.94609,0.66995 -3.61982,1.21811 -3.71938,1.21811 -0.0996,0 -0.40399,-0.50602 -0.67646,-1.12448 -0.84527,-1.91855 -3.59712,-7.95359 -3.94777,-8.65775 -0.41563,-0.83465 -1.23814,-2.56151 -3.46596,-7.27683 -0.96084,-2.03367 -1.88921,-3.78802 -2.06306,-3.89853 -0.17386,-0.11055 -0.22665,-0.20281 -0.11729,-0.20503 0.10932,-0.003 -1.12075,-2.57183 -2.73355,-5.71021 -1.61276,-3.13838 -2.87565,-5.85382 -2.80638,-6.03432 0.0693,-0.18053 2.07325,-1.30284 4.45331,-2.49405 2.38006,-1.1912 4.9227,-2.51862 5.65031,-2.94978 0.7276,-0.43117 2.2507,-1.29109 3.38468,-1.91093 1.13395,-0.61984 2.28984,-1.33948 2.5686,-1.59919 0.27879,-0.25972 0.63093,-0.47223 0.78253,-0.47223 0.15161,0 0.27565,-0.11906 0.27565,-0.26458 0,-0.14553 0.14882,-0.2661 0.33073,-0.26797 0.80663,-0.008 12.34037,-7.934377 13.32446,-9.156727 0.16159,-0.20069 0.42527,-0.36489 0.58603,-0.36489 0.16073,0 0.41968,-0.23812 0.57544,-0.52916 0.15576,-0.29105 0.40886,-0.52917 0.56243,-0.52917 0.34454,0 2.22975,-1.56602 6.84591,-5.68682 5.01523,-4.47704 11.58502,-11.56515 14.96102,-16.14131 0.21471,-0.29104 0.98338,-1.24354 1.70815,-2.11666 0.7248,-0.87313 1.31884,-1.73633 1.32014,-1.91823 0,-0.1819 0.12142,-0.33073 0.26694,-0.33073 0.14552,0 0.26458,-0.1786 0.26458,-0.39688 0,-0.21828 0.10874,-0.39687 0.24167,-0.39687 0.25953,0 3.76928,-5.41435 6.17442,-9.525 1.48045,-2.53024 4.83375,-9.09144 6.15265,-12.03854 2.97397,-6.6454 6.36818,-17.04744 7.80357,-23.91531 0.26191,-1.25314 0.71503,-3.40954 1.00692,-4.79199 0.29192,-1.38244 0.60794,-3.10885 0.70229,-3.83645 0.0944,-0.72761 0.22796,-1.56105 0.29691,-1.85209 0.1301,-0.54916 0.38669,-2.85202 0.47167,-4.23333 0.0269,-0.43656 0.14034,-0.93932 0.25218,-1.11725 0.11184,-0.17792 0.19981,-0.77323 0.1955,-1.32291 -0.004,-0.54968 0.10708,-1.83286 0.24757,-2.85151 0.45612,-3.30707 0.6369,-19.74404 0.27411,-24.92027 -0.18169,-2.59218 -0.40201,-4.83205 -0.48964,-4.97748 -0.0876,-0.14544 -0.1252,-0.58923 -0.0836,-0.98621 0.0416,-0.39698 -0.0122,-0.86417 -0.11986,-1.03822 -0.10755,-0.17404 -0.22656,-0.62321 -0.26445,-0.99817 -0.21471,-2.12547 -0.40336,-3.47204 -0.65148,-4.65048 -0.1532,-0.7276 -0.34507,-1.79917 -0.4264,-2.38125 -0.0813,-0.58208 -0.23784,-1.23693 -0.3478,-1.45521 -0.10996,-0.21828 -0.2831,-0.87312 -0.38476,-1.45521 -0.69913,-4.00341 -3.68133,-12.72987 -5.87729,-17.19791 -2.26621,-4.61105 -4.40531,-8.33288 -4.91681,-8.55486 -0.11184,-0.0485 -0.20328,-0.21696 -0.20328,-0.3744 0,-0.36942 -2.68192,-3.90298 -2.96227,-3.90298 -0.117,0 -0.21273,-0.17547 -0.21273,-0.38993 0,-0.74256 -9.38683,-9.92882 -10.14563,-9.92882 -0.0773,0 -0.49482,-0.32743 -0.92795,-0.72761 -0.51771,-0.47832 -0.84362,-1.0902 -0.95128,-1.78593 -0.58727,-3.79512 -3.59391,-13.59429 -6.19808,-20.20064 -1.57032,-3.9837 -5.9595,-13.20924 -6.98108,-14.67345 -0.28506,-0.40856 -0.44879,-0.81234 -0.36385,-0.89728 0.30083,-0.30083 11.63203,1.82893 15.38141,2.89102 0.58209,0.16489 1.14764,0.32296 1.25678,0.35127 0.10914,0.0283 0.2282,0.0755 0.26458,0.10479 0.0364,0.0293 0.24474,0.0978 0.46302,0.15227 0.21828,0.0544 1.11125,0.29667 1.98437,0.53833 0.87313,0.24165 1.7661,0.47656 1.98438,0.52201 0.21828,0.0455 0.42664,0.10664 0.46302,0.13596 0.0364,0.0293 0.15544,0.0785 0.26458,0.10924 0.10914,0.0308 0.37704,0.13296 0.59532,0.2271 1.04933,0.45259 2.64583,0.93369 2.64583,0.79733 0,-0.0841 0.15335,-0.0257 0.34076,0.12985 0.18743,0.15554 1.78424,0.82278 3.54851,1.48274 1.76424,0.65996 3.63498,1.452 4.15713,1.76009 0.52218,0.3081 0.94943,0.49876 0.94943,0.4237 0,-0.19603 9.21526,4.51183 9.52479,4.86601 0.0729,0.0834 0.3116,0.21723 0.53049,0.29746 0.21886,0.0802 2.10114,1.29194 4.1828,2.69268 2.08164,1.40074 3.83733,2.54681 3.90149,2.54681 0.0642,0 0.32906,0.20836 0.58865,0.46302 0.25958,0.25466 0.86556,0.76067 1.34659,1.12448 1.27231,0.96219 2.95455,2.30891 3.90361,3.125 0.45506,0.3913 1.46709,1.24646 2.24896,1.90036 1.91966,1.60547 7.05805,6.73668 9.67248,9.65901 4.61216,5.15529 9.84229,12.18362 12.9771,17.4388 2.40982,4.03981 8.06513,15.25704 8.41573,16.69245 0.0356,0.14552 0.41791,1.15756 0.84969,2.24896 1.39186,3.51824 4.07019,11.9486 4.71773,14.84973 0.0609,0.27286 0.17026,0.73423 0.24302,1.02527 1.04082,4.16329 2.33108,12.59129 2.77042,18.09624 0.3492,4.37571 0.35145,16.80407 0.004,21.22211 -0.50911,6.47045 -1.7817,15.33621 -2.80643,19.55144 -0.0708,0.29104 -0.17312,0.76729 -0.22749,1.05834 -0.0544,0.29104 -0.3347,1.42213 -0.62296,2.51354 -2.0541,7.77714 -2.29569,8.58145 -3.83448,12.76614 -0.52173,1.41883 -0.86444,2.58151 -0.76157,2.58374 0.10284,0.002 0.0613,0.0915 -0.0923,0.19844 -0.15362,0.10691 -0.5505,0.96829 -0.88191,1.91418 -0.33139,0.94588 -0.93607,2.43416 -1.34366,3.30729 -0.40762,0.87312 -1.19684,2.65906 -1.75379,3.96875 -0.55698,1.30969 -1.4042,3.0773 -1.88272,3.92802 -0.4785,0.85073 -0.87003,1.60681 -0.87003,1.68019 0,0.48827 -5.5416,9.87955 -7.97232,13.51061 -0.99949,1.49304 -1.81727,2.82257 -1.81727,2.95449 0,0.13195 -0.11123,0.27956 -0.24717,0.32809 -0.13597,0.0485 -1.38372,1.636 -2.77278,3.52777 -3.01591,4.10734 -3.3006,4.47868 -4.01365,5.2356 -0.30321,0.32189 -1.01759,1.17567 -1.5875,1.89733 -0.56991,0.72162 -1.21478,1.50209 -1.43306,1.73434 -0.21829,0.23228 -1.52472,1.66589 -2.90317,3.18585 -3.06179,3.37605 -7.6009,7.906007 -10.59016,10.568747 -1.22523,1.09141 -2.54275,2.28203 -2.92783,2.64583 -0.38507,0.36381 -1.34244,1.19158 -2.12751,1.83949 -0.78505,0.64792 -1.6655,1.39962 -1.95654,1.67042 -2.90624,2.70434 -17.0361,12.94427 -20.71325,15.01095 -0.61317,0.34462 -1.11488,0.70255 -1.11488,0.79539 0,0.0928 0.92274,1.59825 2.05052,3.34534 1.12779,1.7471 2.19433,3.40537 2.37009,3.68509 2.54846,4.05548 3.25231,5.23071 3.25231,5.43042 0,0.13062 0.11906,0.23749 0.26458,0.23749 0.14552,0 0.26459,0.17859 0.26459,0.39687 0,0.21828 0.10615,0.39688 0.2359,0.39688 0.12975,0 0.31059,0.29765 0.4019,0.66145 0.0913,0.36381 0.28281,0.66146 0.42558,0.66146 0.14275,0 0.25953,0.13325 0.25953,0.29613 0,0.2776 1.77671,3.38407 2.1005,3.67262 0.0816,0.0728 0.37259,0.57328 0.64654,1.11223 0.27395,0.53896 0.69067,1.19846 0.92604,1.46553 0.23537,0.2671 0.46683,0.65955 0.51435,0.87215 0.0475,0.21261 0.45246,0.98186 0.8999,1.70947 0.44744,0.7276 1.05085,1.73963 1.34094,2.24896 0.29006,0.50932 0.8722,1.52135 1.29362,2.24895 0.42143,0.72761 0.99531,1.82894 1.27527,2.4474 0.27998,0.61846 0.65217,1.12448 0.82711,1.12448 0.17495,0 0.24802,0.0701 0.16238,0.15571 -0.0856,0.0856 0.17044,0.71072 0.56906,1.38906 0.39862,0.67834 1.65788,3.01929 2.79837,5.2021 1.14046,2.18282 2.17498,4.00868 2.29891,4.0575 0.1239,0.0488 0.16394,0.18804 0.0889,0.3094 -0.075,0.12136 0.022,0.37907 0.21569,0.57272 0.19364,0.19362 0.36366,0.41158 0.37782,0.48434 0.014,0.0728 1.808,3.7637 3.98632,8.20209 4.71609,9.6092401 6.46454,13.2566801 6.54772,13.6591901 0.0338,0.16375 0.56208,1.35131 1.17388,2.63903 0.61179,1.2877 1.56474,3.47543997 2.11767,4.86164 0.55295,1.38618 1.36668,3.29425 1.8083,4.24014 3.70916,7.9446099 12.4003,32.0198999 16.5717,45.9052009 0.8306,2.7649 1.61425,5.32474 1.7414,5.68855 0.12716,0.3638 0.71758,2.50692 1.31205,4.7625 0.59444,2.25557 1.15302,4.27963 1.24126,4.49791 0.0882,0.21828 0.20312,0.635 0.2553,0.92604 0.0521,0.29105 0.20122,0.82683 0.33123,1.19063 0.5067,1.41793 5.11289,20.53751 5.44992,22.62187 0.0941,0.58209 0.23791,1.23693 0.31956,1.45521 0.0816,0.21828 0.18142,0.57547 0.2218,0.79375 0.16449,0.88932 0.39666,2.02235 0.54216,2.64584 0.61018,2.61469 4.30474,21.389712 4.47757,22.754162 0.10136,0.80037 0.27971,1.57427 0.39629,1.7198 0.11658,0.14552 0.34393,1.21425 0.5052,2.37495 0.16129,1.16072 0.69707,4.37541 1.19062,7.14375 0.49355,2.76836 1.04577,5.92635 1.22714,7.01775 0.18137,1.09141 0.44008,2.12799 0.57494,2.30352 0.13486,0.17552 0.17989,0.42479 0.10009,0.5539 -0.15513,0.25099 1.15663,5.47648 1.70699,6.79987 0.18155,0.43657 0.31085,0.88305 0.28736,0.99219 -0.0236,0.10914 0.0763,0.19844 0.22185,0.19844 0.14552,0 0.26459,0.17497 0.26459,0.38883 0,0.44048 0.77292,1.87928 1.85139,3.44631 1.00656,1.46259 3.51274,3.85833 5.63287,5.38472 0.97579,0.70249 1.70683,1.34461 1.62452,1.42689 -0.0823,0.0823 0.007,0.40299 0.19944,0.71263 0.26287,0.424 0.27258,0.61069 0.0393,0.75602 -0.17037,0.10618 -0.39164,0.51925 -0.4917,0.91798 -0.20103,0.80094 -0.5152,0.93847 -0.74943,0.32808 -0.20204,-0.52647 -1.13898,-0.50763 -1.43926,0.029 -0.21905,0.39137 -0.25154,0.39137 -0.40172,0 -0.20756,-0.54094 -1.20504,-0.55592 -1.41025,-0.0212 -0.13735,0.35796 -0.19132,0.35534 -0.46776,-0.0228 -0.36872,-0.50427 -1.91098,-0.43511 -1.80774,0.0811 0.0936,0.46783 -0.37507,0.41235 -0.55869,-0.0661 -0.20204,-0.52647 -1.13898,-0.50763 -1.43925,0.029 -0.21905,0.39138 -0.25154,0.39138 -0.40172,0 -0.20609,-0.53702 -1.20441,-0.55755 -1.40727,-0.029 -0.0838,0.21828 -0.26564,0.39688 -0.40418,0.39688 -0.13853,0 -0.18338,-0.11084 -0.0997,-0.2463 0.0837,-0.13547 0.0243,-0.32528 -0.13171,-0.42178 -0.40265,-0.24886 -1.63084,0.102 -1.43971,0.41125 0.0873,0.14126 0.0454,0.25683 -0.0932,0.25683 -0.13853,0 -0.32041,-0.1786 -0.40417,-0.39688 -0.20278,-0.52842 -1.40335,-0.508 -1.70384,0.029 -0.21905,0.39138 -0.25154,0.39138 -0.40172,0 -0.21735,-0.56642 -1.14157,-0.54334 -1.48979,0.0372 -0.2645,0.44098 -0.29096,0.44098 -0.55546,0 -0.34796,-0.5801 -1.20621,-0.60108 -1.52178,-0.0372 -0.21905,0.39138 -0.25154,0.39138 -0.40172,0 -0.20825,-0.54268 -1.46859,-0.55864 -1.67484,-0.0212 -0.13716,0.35745 -0.19193,0.35451 -0.46953,-0.0251 -0.35951,-0.49167 -1.64467,-0.41682 -1.54138,0.0898 0.0945,0.46342 -0.3765,0.40238 -0.55869,-0.0724 -0.20204,-0.52647 -1.13898,-0.50763 -1.43926,0.029 -0.21905,0.39137 -0.25154,0.39137 -0.40172,0 -0.20666,-0.53859 -1.4679,-0.56044 -1.67184,-0.029 -0.0838,0.21828 -0.26565,0.39687 -0.40418,0.39687 -0.13854,0 -0.18047,-0.11557 -0.0932,-0.25683 0.0873,-0.14126 -0.16232,-0.33739 -0.55473,-0.43587 -0.51374,-0.12896 -0.80425,-0.0549 -1.03785,0.26458 -0.28427,0.38878 -0.34364,0.3936 -0.47969,0.039 -0.20447,-0.53282 -1.13991,-0.51909 -1.44225,0.0212 -0.21904,0.39138 -0.25153,0.39138 -0.40171,0 -0.21736,-0.56642 -1.14157,-0.54334 -1.48979,0.0372 -0.26451,0.44098 -0.29096,0.44098 -0.55547,0 -0.34824,-0.58058 -1.4692,-0.60391 -1.78636,-0.0372 -0.21905,0.39138 -0.25154,0.39138 -0.40172,0 -0.20756,-0.54094 -1.20504,-0.55591 -1.41025,-0.0212 -0.13605,0.35457 -0.19542,0.34975 -0.47969,-0.039 -0.2336,-0.31946 -0.52411,-0.39354 -1.03786,-0.26458 -0.3924,0.0985 -0.64201,0.29461 -0.55472,0.43587 0.0873,0.14126 0.0454,0.25683 -0.0932,0.25683 -0.13854,0 -0.32041,-0.17859 -0.40418,-0.39687 -0.20277,-0.52843 -1.40335,-0.508 -1.70384,0.029 -0.21904,0.39137 -0.25153,0.39137 -0.40171,0 -0.20609,-0.53702 -1.20441,-0.55756 -1.40727,-0.029 -0.0838,0.21828 -0.2586,0.39687 -0.38856,0.39687 -0.12994,0 -0.23628,-0.17859 -0.23628,-0.39687 0,-0.54062 -1.22915,-0.51742 -1.53493,0.029 -0.21904,0.39137 -0.25153,0.39137 -0.40171,0 -0.0899,-0.23421 -0.39936,-0.42585 -0.68773,-0.42585 -0.2884,0 -0.63156,0.19164 -0.76264,0.42585 -0.21905,0.39137 -0.25154,0.39137 -0.40172,0 -0.16719,-0.43569 -0.86817,-0.55129 -1.61208,-0.26583 -0.22934,0.088 -0.3511,0.2666 -0.27058,0.39688 0.0805,0.13028 0.033,0.23685 -0.10552,0.23685 -0.13854,0 -0.32041,-0.17859 -0.40418,-0.39687 -0.20203,-0.52647 -1.13898,-0.50763 -1.43925,0.029 -0.21905,0.39137 -0.25154,0.39137 -0.40172,0 -0.21315,-0.55547 -1.2074,-0.54978 -1.4215,0.008 -0.15274,0.39804 -0.19404,0.3964 -0.49832,-0.0198 -0.38332,-0.52422 -1.87229,-0.48308 -1.76593,0.0488 0.0936,0.46784 -0.37507,0.41235 -0.55869,-0.0661 -0.20204,-0.52647 -1.13898,-0.50763 -1.43926,0.029 -0.21905,0.39137 -0.25154,0.39137 -0.40172,0 -0.21735,-0.56642 -1.14157,-0.54335 -1.48978,0.0372 -0.26451,0.44098 -0.29097,0.44098 -0.55547,0 -0.34825,-0.58057 -1.46921,-0.60391 -1.78636,-0.0372 -0.21905,0.39137 -0.25154,0.39137 -0.40172,0 -0.20756,-0.54094 -1.20504,-0.55592 -1.41025,-0.0212 -0.13716,0.35745 -0.19193,0.35452 -0.46953,-0.0251 -0.35952,-0.49168 -1.64468,-0.41683 -1.54139,0.0898 0.0945,0.46342 -0.3765,0.40238 -0.55869,-0.0724 -0.20204,-0.52647 -1.13898,-0.50763 -1.43926,0.029 -0.21904,0.39138 -0.25153,0.39138 -0.40171,0 -0.20667,-0.53858 -1.46791,-0.56044 -1.67185,-0.029 -0.0838,0.21828 -0.26564,0.39688 -0.40418,0.39688 -0.13853,0 -0.18047,-0.11557 -0.0932,-0.25683 0.0873,-0.14127 -0.16232,-0.3374 -0.55472,-0.43588 -0.51375,-0.12896 -0.80426,-0.0549 -1.03786,0.26458 -0.28427,0.38878 -0.34364,0.3936 -0.47969,0.039 -0.20447,-0.53282 -1.1399,-0.51909 -1.44224,0.0212 -0.21905,0.39137 -0.25154,0.39137 -0.40172,0 -0.21828,-0.56886 -1.40597,-0.54369 -1.75437,0.0372 -0.26451,0.44098 -0.29096,0.44098 -0.55547,0 -0.34795,-0.5801 -1.20621,-0.60108 -1.52178,-0.0372 -0.21904,0.39137 -0.25153,0.39137 -0.40171,0 -0.20757,-0.54094 -1.20505,-0.55592 -1.41026,-0.0212 -0.13605,0.35457 -0.19542,0.34975 -0.47969,-0.039 -0.2336,-0.31945 -0.52411,-0.39354 -1.03785,-0.26458 -0.39241,0.0985 -0.64201,0.29461 -0.55473,0.43588 0.0873,0.14126 0.0454,0.25683 -0.0932,0.25683 -0.13853,0 -0.32041,-0.1786 -0.40417,-0.39688 -0.20278,-0.52842 -1.40335,-0.508 -1.70384,0.029 -0.21905,0.39138 -0.25154,0.39138 -0.40172,0 -0.20608,-0.53702 -1.20441,-0.55755 -1.40726,-0.029 -0.1822,0.4748 -0.65318,0.53584 -0.5587,0.0724 0.10329,-0.5066 -1.18187,-0.58145 -1.54138,-0.0898 -0.2776,0.37965 -0.33237,0.38258 -0.46953,0.0251 -0.20516,-0.53456 -1.40415,-0.51969 -1.70683,0.0212 -0.21905,0.39137 -0.25154,0.39137 -0.40172,0 -0.21735,-0.56642 -1.14157,-0.54335 -1.48978,0.0372 -0.26451,0.44098 -0.29097,0.44098 -0.55547,0 -0.34795,-0.5801 -1.20621,-0.60108 -1.52178,-0.0372 -0.21905,0.39137 -0.25154,0.39137 -0.40172,0 -0.20608,-0.53703 -1.20441,-0.55756 -1.40726,-0.029 -0.0838,0.21828 -0.26564,0.39687 -0.40418,0.39687 -0.13853,0 -0.18338,-0.11083 -0.0997,-0.2463 z M 166.24066,117.2217 c -0.087,-0.087 -0.0941,-0.3251 -0.0159,-0.52917 0.0783,-0.20405 0.0106,-0.371 -0.15052,-0.371 -0.1611,0 -0.29289,-0.17859 -0.29289,-0.39688 0,-0.21828 0.11906,-0.39687 0.26458,-0.39687 0.14552,0 0.26458,-0.22897 0.26458,-0.50885 0,-0.33596 0.62431,-0.9239 1.83761,-1.73048 1.63108,-1.08434 4.99528,-4.43293 5.28117,-5.25669 0.059,-0.17004 0.38642,-0.67762 0.7276,-1.12791 0.34115,-0.4503 0.62029,-0.90816 0.62029,-1.01749 0,-0.10932 0.22503,-0.5148 0.50009,-0.90106 0.27503,-0.38627 0.5085,-0.79367 0.51879,-0.90533 0.0103,-0.11165 0.26014,-0.74871 0.55515,-1.41568 0.8399,-1.89867 1.80279,-5.134002 2.39954,-8.062222 1.39266,-6.83387 1.31241,6.822842 1.31273,-223.416998 0,-230.31588 0.084,-216.07276 -1.31112,-223.14543 -0.63482,-3.21879 -2.32976,-8.49728 -2.72841,-8.49728 -0.15211,0 -0.20185,-0.0747 -0.11054,-0.16601 0.29064,-0.29065 -1.70403,-3.81678 -3.2833,-5.80414 -1.62793,-2.04858 -4.59361,-4.6148 -6.07713,-5.25858 -0.49713,-0.21572 -0.75502,-0.39688 -0.57312,-0.40258 0.38955,-0.0122 0.45469,-0.8041 0.0661,-0.8041 -0.14552,0 -0.26458,-0.1786 -0.26458,-0.39688 0,-0.21828 0.10419,-0.39687 0.23151,-0.39687 0.12734,0 0.30295,-0.35719 0.39026,-0.79375 0.14539,-0.72697 0.70115,-1.14641 0.70115,-0.52917 0,0.38487 1.51905,0.32495 1.67685,-0.0661 0.10676,-0.26458 0.13763,-0.26458 0.15435,0 0.0272,0.43181 1.5235,0.43181 1.69773,0 0.10676,-0.26458 0.13764,-0.26458 0.15436,0 0.0246,0.39119 1.60837,0.45632 1.60837,0.0661 0,-0.14552 0.1786,-0.26458 0.39688,-0.26458 0.21828,0 0.39687,0.11906 0.39687,0.26458 0,0.38487 1.51906,0.32495 1.67685,-0.0661 0.10676,-0.26458 0.13764,-0.26458 0.15436,0 0.0246,0.39119 1.60838,0.45632 1.60838,0.0661 0,-0.14552 0.1261,-0.26458 0.28019,-0.26458 0.15412,0 0.20661,0.11906 0.11668,0.26458 -0.0975,0.15777 0.22294,0.26458 0.79375,0.26458 0.57081,0 0.89125,-0.10681 0.79375,-0.26458 -0.0899,-0.14552 0.022,-0.26458 0.24897,-0.26458 0.22686,0 0.41249,0.11906 0.41249,0.26458 0,0.38487 1.51905,0.32495 1.67685,-0.0661 0.10676,-0.26458 0.13764,-0.26458 0.15436,0 0.0272,0.43161 1.5172,0.43161 1.71863,0 0.12345,-0.26458 0.1852,-0.26458 0.30866,0 0.20053,0.42971 1.61372,0.42971 1.7871,0 0.10676,-0.26458 0.13764,-0.26458 0.15436,0 0.0124,0.19598 0.3892,0.33073 0.92488,0.33073 0.49717,0 0.96403,-0.14882 1.03743,-0.33073 0.10676,-0.26458 0.13763,-0.26458 0.15435,0 0.0273,0.43161 1.5172,0.43161 1.71863,0 0.12346,-0.26458 0.18521,-0.26458 0.30866,0 0.0849,0.18191 0.49171,0.33073 0.90401,0.33073 0.4123,0 0.8097,-0.14882 0.8831,-0.33073 0.10676,-0.26458 0.13763,-0.26458 0.15435,0 0.0246,0.39119 1.60838,0.45632 1.60838,0.0661 0,-0.14552 0.18563,-0.26458 0.41249,-0.26458 0.22688,0 0.3389,0.11906 0.24897,0.26458 -0.097,0.157 0.2104,0.26458 0.75607,0.26458 0.50581,0 0.97967,-0.14882 1.05307,-0.33073 0.10676,-0.26458 0.13764,-0.26458 0.15436,0 0.0273,0.43181 1.5235,0.43181 1.69772,0 0.10676,-0.26458 0.13764,-0.26458 0.15436,0 0.0246,0.39119 1.60838,0.45632 1.60838,0.0661 0,-0.14552 0.17859,-0.26458 0.39687,-0.26458 0.21828,0 0.39688,0.11906 0.39688,0.26458 0,0.38487 1.51905,0.32495 1.67685,-0.0661 0.10676,-0.26458 0.13763,-0.26458 0.15435,0 0.0246,0.39119 1.60838,0.45632 1.60838,0.0661 0,-0.14552 0.1261,-0.26458 0.28019,-0.26458 0.15412,0 0.20662,0.11906 0.11669,0.26458 -0.0975,0.15777 0.22293,0.26458 0.79375,0.26458 0.57081,0 0.89124,-0.10681 0.79375,-0.26458 -0.0899,-0.14552 -0.0374,-0.26458 0.11668,-0.26458 0.15409,0 0.28019,0.11906 0.28019,0.26458 0,0.38424 1.51511,0.32521 1.69775,-0.0661 0.12346,-0.26458 0.18521,-0.26458 0.30866,0 0.0849,0.18191 0.49171,0.33073 0.90401,0.33073 0.4123,0 0.81909,-0.14882 0.904,-0.33073 0.12345,-0.26458 0.18521,-0.26458 0.30866,0 0.20053,0.42971 1.61372,0.42971 1.7871,0 0.10676,-0.26458 0.13764,-0.26458 0.15436,0 0.0272,0.43161 1.5172,0.43161 1.71863,0 0.12345,-0.26458 0.18521,-0.26458 0.30866,0 0.0849,0.18191 0.4917,0.33073 0.904,0.33073 0.4123,0 0.8191,-0.14882 0.90401,-0.33073 0.12345,-0.26458 0.1852,-0.26458 0.30866,0 0.0849,0.18191 0.4917,0.33073 0.904,0.33073 0.4123,0 0.8097,-0.14882 0.8831,-0.33073 0.10676,-0.26458 0.13764,-0.26458 0.15436,0 0.0246,0.39119 1.60837,0.45632 1.60837,0.0661 0,-0.14552 0.1261,-0.26458 0.2802,-0.26458 0.15412,0 0.20661,0.11906 0.11668,0.26458 -0.0989,0.16003 0.26704,0.26458 0.92604,0.26458 0.659,0 1.02494,-0.10455 0.92604,-0.26458 -0.0899,-0.14552 -0.0374,-0.26458 0.11668,-0.26458 0.1541,0 0.2802,0.11906 0.2802,0.26458 0,0.38487 1.51905,0.32495 1.67685,-0.0661 0.10676,-0.26458 0.13763,-0.26458 0.15435,0 0.0272,0.43161 1.5172,0.43161 1.71863,0 0.12346,-0.26458 0.18521,-0.26458 0.30866,0 0.0849,0.18191 0.49171,0.33073 0.90401,0.33073 0.4123,0 0.81909,-0.14882 0.904,-0.33073 0.12345,-0.26458 0.18521,-0.26458 0.30866,0 0.20053,0.42971 1.61372,0.42971 1.7871,0 0.10676,-0.26458 0.13764,-0.26458 0.15436,0 0.0272,0.43161 1.5172,0.43161 1.71863,0 0.12345,-0.26458 0.18521,-0.26458 0.30866,0 0.20053,0.42971 1.61372,0.42971 1.7871,0 0.10676,-0.26458 0.13764,-0.26458 0.15436,0 0.0249,0.3951 1.87296,0.46037 1.87296,0.0661 0,-0.14552 0.1261,-0.26458 0.28019,-0.26458 0.15412,0 0.20662,0.11906 0.11669,0.26458 -0.0975,0.15777 0.22293,0.26458 0.79375,0.26458 0.57081,0 0.89124,-0.10681 0.79375,-0.26458 -0.0899,-0.14552 -0.0374,-0.26458 0.11668,-0.26458 0.15409,0 0.28019,0.11906 0.28019,0.26458 0,0.38487 1.51905,0.32495 1.67685,-0.0661 0.10676,-0.26458 0.13764,-0.26458 0.15436,0 0.0246,0.39119 1.60837,0.45632 1.60837,0.0661 0,-0.14552 0.1786,-0.26458 0.39688,-0.26458 0.21828,0 0.39687,0.11906 0.39687,0.26458 0,0.38487 1.51906,0.32495 1.67685,-0.0661 0.10676,-0.26458 0.13764,-0.26458 0.15436,0 0.0272,0.43181 1.5235,0.43181 1.69773,0 0.10676,-0.26458 0.13763,-0.26458 0.15435,0 0.0124,0.19872 0.39675,0.33073 0.96253,0.33073 0.56042,0 0.87546,-0.10712 0.77814,-0.26458 -0.0899,-0.14552 0.022,-0.26458 0.24897,-0.26458 0.22686,0 0.41249,0.11906 0.41249,0.26458 0,0.38487 1.51905,0.32495 1.67685,-0.0661 0.10676,-0.26458 0.13764,-0.26458 0.15436,0 0.0272,0.43161 1.5172,0.43161 1.71863,0 0.12345,-0.26458 0.1852,-0.26458 0.30866,0 0.0849,0.18191 0.4917,0.33073 0.904,0.33073 0.4123,0 0.8097,-0.14882 0.8831,-0.33073 0.10676,-0.26458 0.13764,-0.26458 0.15436,0 0.0124,0.19598 0.3892,0.33073 0.92488,0.33073 0.49717,0 0.96403,-0.14882 1.03743,-0.33073 0.10676,-0.26458 0.13763,-0.26458 0.15435,0 0.0273,0.43161 1.5172,0.43161 1.71863,0 0.12346,-0.26458 0.18521,-0.26458 0.30866,0 0.20053,0.42971 1.61373,0.42971 1.78711,0 0.10676,-0.26458 0.13763,-0.26458 0.15435,0 0.0246,0.39119 1.60838,0.45632 1.60838,0.0661 0,-0.14552 0.18563,-0.26458 0.41249,-0.26458 0.22688,0 0.3389,0.11906 0.24897,0.26458 -0.0975,0.15777 0.22294,0.26458 0.79375,0.26458 0.57081,0 0.89125,-0.10681 0.79375,-0.26458 -0.0899,-0.14552 -0.0374,-0.26458 0.11668,-0.26458 0.15409,0 0.28019,0.11906 0.28019,0.26458 0,0.38487 1.51906,0.32495 1.67685,-0.0661 0.10676,-0.26458 0.13764,-0.26458 0.15436,0 0.0273,0.43161 1.5172,0.43161 1.71863,0 0.12345,-0.26458 0.18521,-0.26458 0.30866,0 0.0849,0.18191 0.55123,0.33073 1.0363,0.33073 0.48506,0 0.94199,-0.14882 1.01539,-0.33073 0.10676,-0.26458 0.13763,-0.26458 0.15435,0 0.0272,0.43181 1.5235,0.43181 1.69773,0 0.10676,-0.26458 0.13764,-0.26458 0.15436,0 0.0273,0.43161 1.5172,0.43161 1.71863,0 0.12345,-0.26458 0.1852,-0.26458 0.30866,0 0.0849,0.18191 0.4917,0.33073 0.904,0.33073 0.4123,0 0.8191,-0.14882 0.904,-0.33073 0.12346,-0.26458 0.18521,-0.26458 0.30866,0 0.18265,0.39136 1.69776,0.45039 1.69776,0.0661 0,-0.14552 0.1261,-0.26458 0.28019,-0.26458 0.15412,0 0.20661,0.11906 0.11668,0.26458 -0.0975,0.15777 0.22294,0.26458 0.79375,0.26458 0.57081,0 0.89125,-0.10681 0.79375,-0.26458 -0.0899,-0.14552 -0.0374,-0.26458 0.11668,-0.26458 0.1541,0 0.2802,0.11906 0.2802,0.26458 0,0.38424 1.51511,0.32521 1.69775,-0.0661 0.12345,-0.26458 0.18521,-0.26458 0.30866,0 0.0849,0.18191 0.4917,0.33073 0.904,0.33073 0.4123,0 0.8191,-0.14882 0.90401,-0.33073 0.12345,-0.26458 0.1852,-0.26458 0.30866,0 0.20053,0.42971 1.61372,0.42971 1.7871,0 0.10676,-0.26458 0.13764,-0.26458 0.15436,0 0.0272,0.43181 1.5235,0.43181 1.69772,0 0.10676,-0.26458 0.13764,-0.26458 0.15436,0 0.0275,0.43591 1.77977,0.43591 1.98321,0 0.12346,-0.26458 0.18521,-0.26458 0.30866,0 0.20053,0.42971 1.61373,0.42971 1.78711,0 0.10676,-0.26458 0.13763,-0.26458 0.15435,0 0.0272,0.43161 1.5172,0.43161 1.71863,0 0.12346,-0.26458 0.18521,-0.26458 0.30866,0 0.0849,0.18191 0.49171,0.33073 0.90401,0.33073 0.4123,0 0.81909,-0.14882 0.904,-0.33073 0.12345,-0.26458 0.18521,-0.26458 0.30866,0 0.0849,0.18191 0.4917,0.33073 0.904,0.33073 0.4123,0 0.80971,-0.14882 0.8831,-0.33073 0.10676,-0.26458 0.13764,-0.26458 0.15436,0 0.0272,0.43161 1.5172,0.43161 1.71863,0 0.12345,-0.26458 0.18521,-0.26458 0.30866,0 0.0849,0.18191 0.4917,0.33073 0.904,0.33073 0.4123,0 0.80971,-0.14882 0.8831,-0.33073 0.10676,-0.26458 0.13764,-0.26458 0.15436,0 0.0249,0.3951 1.87296,0.46037 1.87296,0.0661 0,-0.14552 0.1261,-0.26458 0.28019,-0.26458 0.15412,0 0.20662,0.11906 0.11669,0.26458 -0.0975,0.15777 0.22293,0.26458 0.79375,0.26458 0.57081,0 0.89124,-0.10681 0.79375,-0.26458 -0.0899,-0.14552 -0.0374,-0.26458 0.11668,-0.26458 0.15409,0 0.28019,0.11906 0.28019,0.26458 0,0.38487 1.51905,0.32495 1.67685,-0.0661 0.10676,-0.26458 0.13764,-0.26458 0.15436,0 0.0246,0.39119 1.60837,0.45632 1.60837,0.0661 0,-0.14552 0.1786,-0.26458 0.39688,-0.26458 0.21828,0 0.39687,0.11906 0.39687,0.26458 0,0.38487 1.51906,0.32495 1.67685,-0.0661 0.10676,-0.26458 0.13764,-0.26458 0.15436,0 0.0272,0.43181 1.5235,0.43181 1.69773,0 0.10676,-0.26458 0.13763,-0.26458 0.15435,0 0.0246,0.39119 1.60838,0.45632 1.60838,0.0661 0,-0.14552 0.17859,-0.26458 0.39688,-0.26458 0.21828,0 0.39687,0.11906 0.39687,0.26458 0,0.38487 1.51905,0.32495 1.67685,-0.0661 0.10676,-0.26458 0.13764,-0.26458 0.15436,0 0.0246,0.39119 1.60837,0.45632 1.60837,0.0661 0,-0.14552 0.1261,-0.26458 0.2802,-0.26458 0.15412,0 0.20661,0.11906 0.11668,0.26458 -0.0975,0.15777 0.22294,0.26458 0.79375,0.26458 0.57081,0 0.89125,-0.10681 0.79375,-0.26458 -0.0899,-0.14552 -0.0374,-0.26458 0.11668,-0.26458 0.15409,0 0.28019,0.11906 0.28019,0.26458 0,0.38424 1.51511,0.32521 1.69776,-0.0661 0.12345,-0.26458 0.1852,-0.26458 0.30866,0 0.20045,0.42952 1.60755,0.42952 1.808,0 0.12346,-0.26458 0.18521,-0.26458 0.30866,0 0.0849,0.18191 0.49171,0.33073 0.90401,0.33073 0.4123,0 0.8097,-0.14882 0.8831,-0.33073 0.10676,-0.26458 0.13763,-0.26458 0.15435,0 0.0272,0.43161 1.5172,0.43161 1.71863,0 0.12346,-0.26458 0.18521,-0.26458 0.30866,0 0.20045,0.42952 1.60756,0.42952 1.80801,0 0.12345,-0.26458 0.18521,-0.26458 0.30866,0 0.18264,0.39136 1.69775,0.45039 1.69775,0.0661 0,-0.15679 0.97015,-0.26458 2.38125,-0.26458 1.94027,0 2.38125,0.0735 2.38125,0.39687 0,0.33097 0.53827,0.39753 3.24115,0.4008 3.76422,0.005 11.35861,0.47253 15.0151,0.92525 0.50932,0.0631 2.41432,0.30987 4.23333,0.54846 4.70731,0.61743 5.34324,0.68926 6.08542,0.68741 0.3638,-9e-4 0.79521,0.10895 0.95866,0.24413 0.16344,0.13518 0.49239,0.17088 0.73097,0.0793 0.23857,-0.0916 0.60933,-0.0207 0.82391,0.15733 0.21458,0.17808 0.58534,0.24888 0.82391,0.15733 0.23858,-0.0916 0.56754,-0.0618 0.73097,0.0661 0.16346,0.12792 0.88458,0.30929 1.6025,0.40303 2.65351,0.34646 11.53054,2.60064 15.89262,4.03565 7.31197,2.40546 10.87361,3.85778 16.80104,6.85094 4.99147,2.52053 5.65822,2.87801 6.03817,3.23743 0.19229,0.1819 0.51972,0.33073 0.7276,0.33073 0.20788,0 0.37798,0.10616 0.37798,0.2359 0,0.12975 0.29766,0.31061 0.66146,0.40192 0.3638,0.0913 0.66146,0.28281 0.66146,0.42555 0,0.14275 0.11353,0.25955 0.25225,0.25955 0.31623,0 6.0747,3.97983 7.71398,5.33133 0.67064,0.55291 1.29572,0.92893 1.38907,0.83559 0.0933,-0.0933 0.1697,-0.0438 0.1697,0.1101 0,0.15389 1.16086,1.2113 2.57969,2.3498 1.41883,1.1385 4.73088,4.21735 7.36012,6.8419 6.72989,6.71787 12.51906,13.82867 16.37864,20.11774 0.71443,1.16416 1.3789,2.17619 1.47656,2.24895 0.0977,0.0728 0.80856,1.32292 1.57975,2.77813 0.7712,1.45521 1.60316,2.94349 1.84882,3.30729 0.44316,0.65633 3.70142,7.26663 3.70142,7.5094 0,0.0696 0.34377,0.87905 0.76393,1.7987 1.01809,2.22834 3.09811,7.71564 4.04381,10.66794 0.76388,2.38463 2.78345,9.73633 3.01636,10.98021 0.0681,0.3638 0.29813,1.4949 0.51115,2.51354 1.30516,6.24142 1.88238,10.46109 2.23604,16.3464 0.23247,3.8681 0.15227,17.03161 -0.12525,20.56298 -0.3048,3.87858 -0.97086,9.43284 -1.45947,12.17083 -0.27268,1.52797 -0.56597,3.19485 -0.65175,3.70417 -0.0857,0.50932 -0.26564,1.34276 -0.3997,1.85208 -0.13409,0.50932 -0.29882,1.34276 -0.36608,1.85208 -0.0673,0.50933 -0.24945,1.28323 -0.40481,1.7198 -0.15536,0.43656 -0.32692,1.15093 -0.38127,1.5875 -0.0543,0.43656 -0.16946,0.97234 -0.25585,1.19062 -0.0864,0.21828 -0.6518,2.18281 -1.2565,4.36563 -0.60471,2.18281 -1.43968,4.89148 -1.85547,6.01927 -0.4158,1.12778 -0.68488,2.05052 -0.59796,2.05052 0.0869,0 0.0382,0.14883 -0.10827,0.33073 -0.34454,0.42794 -1.68487,4.16718 -1.49371,4.16718 0.08,0 -0.0416,0.1871 -0.27027,0.41578 -0.22868,0.22867 -0.41685,0.55609 -0.41817,0.7276 -0.003,0.17151 -0.29528,0.90715 -0.6532,1.63475 -0.35791,0.7276 -0.65448,1.48562 -0.65903,1.68448 -0.008,0.37385 -5.3245,11.09462 -6.31486,12.73531 -0.30745,0.50932 -0.81299,1.40229 -1.1234,1.98438 -0.31041,0.58208 -1.44457,2.4391 -2.52034,4.12671 -1.07577,1.6876 -1.95593,3.20565 -1.95593,3.37344 0,0.16778 -0.11906,0.30505 -0.26458,0.30505 -0.14552,0 -0.26459,0.16868 -0.26459,0.37483 0,0.20615 -0.0942,0.41451 -0.20934,0.46302 -0.11514,0.0485 -0.97239,1.15976 -1.90505,2.46945 -2.89266,4.06213 -4.55424,6.26056 -6.59916,8.73125 -9.27332,11.20414 -20.19141,21.58468 -31.7677,30.20362 -1.0914,0.81259 -2.02406,1.58224 -2.07256,1.71034 -0.0485,0.1281 -0.25688,0.23291 -0.46302,0.23291 -0.20616,0 -0.37483,0.11906 -0.37483,0.26458 0,0.14553 -0.17267,0.26459 -0.38373,0.26459 -0.21106,0 -0.47895,0.14883 -0.59531,0.33073 -0.11636,0.1819 -0.41127,0.44979 -0.65532,0.59531 -0.24408,0.14552 -2.58863,1.69333 -5.21015,3.43958 -4.16626,2.77522 -5.42798,3.83646 -4.56126,3.83646 0.12975,0 0.3106,0.29766 0.4019,0.66146 0.0913,0.3638 0.28282,0.66146 0.42559,0.66146 0.14274,0 0.25953,0.11681 0.25953,0.25958 0,0.20701 2.50454,4.28099 5.29166,8.60756 0.21828,0.33885 1.08286,1.80665 1.92128,3.26178 0.83843,1.45513 1.61234,2.68491 1.71979,2.73286 0.10747,0.0479 0.47021,0.62296 0.80613,1.2778 0.33591,0.65485 0.9765,1.78594 1.42356,2.51354 1.95276,3.178277 8.29612,14.413067 9.41147,16.668747 0.35978,0.72761 0.72964,1.38245 0.8219,1.45521 0.17002,0.13409 0.5678,0.90988 6.03687,11.77396 4.16893,8.28138 6.44856,13.06999 9.83147,20.65232 2.16511,4.85274 5.33378,12.23896 5.33378,12.43308 0,0.0586 0.35719,0.88644 0.79375,1.8396 0.43657,0.95316 0.79375,1.88484 0.79375,2.07036 0,0.18556 0.10446,0.45046 0.23212,0.5887 0.12769,0.13825 0.47019,0.9062 0.76118,1.70656 1.71466,4.71652 3.30404,8.96771 3.61053,9.65729 0.19405,0.43657 0.91459,2.4011 1.60123,4.36563 0.68662,1.96453 1.52562,4.34578 1.86444,5.29167 0.33883,0.94588 0.76092,2.1960401 0.93795,2.7781201 0.17706,0.58209 0.42445,1.18835 0.54973,1.34726 0.1253,0.15891 0.15914,0.35761 0.0752,0.44154 -0.0839,0.0839 0.0329,0.54922 0.25969,1.03399 0.4046,0.86495 4.80271,14.79706 5.08087,16.09492 0.078,0.3637999 0.30403,1.1972399 0.50234,1.8520799 1.22571,4.04704 4.83002,17.36228 5.03362,18.59537 0.0773,0.46834 0.24974,1.14916 0.38317,1.51297 0.1334,0.3638 0.61729,2.38786 1.07531,4.49791 0.95534,4.40116 1.79176,7.89078 2.02939,8.46667 0.0901,0.21828 0.13774,0.55454 0.10591,0.74724 -0.0318,0.19269 0.0787,0.5149 0.24564,0.71601 0.1669,0.20111 0.24582,0.46016 0.17534,0.57568 -0.0705,0.11552 0.1017,1.222061 0.38256,2.458991 0.28088,1.23692 0.56922,2.54661 0.64077,2.91041 0.0716,0.36381 0.42433,1.97115 0.78396,3.57188 0.35962,1.60073 0.8278,3.92245 1.04036,5.15937 0.62503,3.63681 1.70072,9.23952 2.18432,11.37709 0.24694,1.0914 0.41905,2.09142 0.38246,2.22228 -0.0366,0.13087 0.0193,0.42852 0.12435,0.66146 0.10496,0.23294 0.21545,0.66167 0.24554,0.95271 0.0917,0.88771 0.37986,2.55186 0.77875,4.49792 0.47662,2.32513 1.87867,10.40696 2.11145,12.17083 0.34989,2.65134 2.55672,10.883802 3.01432,11.244802 0.0922,0.0728 0.40193,0.60854 0.68821,1.19062 1.49643,3.04266 3.53001,5.3077 7.15515,7.96946 l 1.74056,1.27799 -0.0779,1.3294 -0.0779,1.3294 h -49.2125 -49.2125 l -0.0857,-0.89651 c -0.15454,-1.61772 0.0894,-1.95641 2.21274,-3.07224 1.10765,-0.58208 2.23806,-1.26669 2.51203,-1.52135 0.27398,-0.25466 0.57095,-0.46302 0.65995,-0.46302 0.5038,0 4.26789,-2.90166 6.69285,-5.15938 2.24832,-2.09325 5.06077,-5.11916 5.06947,-5.45425 0.003,-0.0894 0.36539,-0.56568 0.80679,-1.058332 1.2495,-1.39457 3.4529,-5.07289 5.21206,-8.70096 1.53455,-3.16484 4.22751,-10.74814 3.92446,-11.0512 -0.0797,-0.0797 -0.0228,-0.29215 0.12668,-0.47212 0.14936,-0.17997 0.24635,-0.42905 0.21553,-0.55351 -0.0308,-0.12446 0.097,-0.76208 0.28408,-1.41692 0.18706,-0.65484 0.39063,-1.48828 0.45239,-1.85208 0.0618,-0.36381 0.23423,-1.37584 0.38332,-2.24896 0.14907,-0.87313 0.31806,-1.86759 0.3755,-2.20993 0.0575,-0.34235 0.1841,-1.5925 0.28144,-2.77813 0.0973,-1.18562 0.21608,-2.2239 0.26384,-2.30727 0.25016,-0.43654 0.33361,-13.23248 0.11462,-17.57551 -0.24567,-4.871951 -0.93573,-13.592651 -1.22476,-15.478121 -0.0781,-0.50932 -0.31258,-2.1762 -0.52112,-3.70417 -0.41945,-3.073 -0.55256,-3.9837 -0.75409,-5.15937 -0.0748,-0.43656 -0.19262,-1.21047 -0.26173,-1.71979 -0.34644,-2.55326 -2.08232,-11.81669 -3.20182,-17.0863499 -0.16561,-0.77951 -2.44457,-9.93237 -3.02525,-12.15011 -1.94665,-7.4347401 -5.03579,-17.5843401 -7.40865,-24.3416701 -0.6132,-1.74625 -1.23407,-3.59172 -1.3797,-4.10104 -0.14562,-0.50932 -0.37277,-1.03915 -0.50477,-1.1774 -0.132,-0.13824 -0.24,-0.41791 -0.24,-0.62148 0,-0.20354 -0.16442,-0.74527 -0.36534,-1.20385 -0.20092,-0.45855 -0.69321,-1.78623 -1.09392,-2.9504 -0.40074,-1.16416 -0.8844,-2.47385 -1.07482,-2.91041 -0.19042,-0.43656 -0.87235,-2.16297 -1.5154,-3.83646 -2.0747,-5.39935 -4.42145,-11.16489 -5.89227,-14.4762 -0.78944,-1.77729 -1.43534,-3.35486 -1.43534,-3.50573 0,-0.15087 -0.11906,-0.27432 -0.26458,-0.27432 -0.14552,0 -0.26458,-0.1592 -0.26458,-0.35377 0,-0.43199 -3.56505,-8.29504 -5.90765,-13.02989 -0.94202,-1.90396 -1.97733,-4.07685 -2.30076,-4.82864 -0.3234,-0.75176 -0.69943,-1.36687 -0.83563,-1.36687 -0.13618,0 -0.17402,-0.11906 -0.0841,-0.26458 0.0899,-0.14552 0.0304,-0.26458 -0.13229,-0.26458 -0.16269,0 -0.22222,-0.11906 -0.13229,-0.26459 0.0899,-0.14552 0.0175,-0.26458 -0.16076,-0.26458 -0.17838,0 -0.24911,-0.0752 -0.15719,-0.16714 0.0919,-0.0919 -0.11205,-0.65746 -0.45326,-1.25677 -0.8578,-1.50664 -3.014,-5.57908 -3.79891,-7.17505 -0.35785,-0.7276 -0.76605,-1.39575 -0.90713,-1.48479 -0.14107,-0.089 -0.23558,-0.24381 -0.21002,-0.34398 0.0565,-0.22156 -3.80138,-7.187507 -4.45204,-8.038697 l -0.46405,-0.60709 -3.69414,1.43581 c -2.03179,0.78971 -5.06339,1.88955 -6.73688,2.44407 -1.67349,0.55454 -3.11554,1.1145 -3.20458,1.24436 -0.089,0.12988 -0.23786,0.22598 -0.33073,0.21354 -0.0929,-0.0124 -0.22838,-0.008 -0.30115,0.0106 -0.33596,0.084 -0.55837,0.15645 -0.92604,0.30176 -0.21828,0.0862 -0.99218,0.327687 -1.71979,0.536517 -0.7276,0.20887 -3.7556,1.12128 -6.72888,2.02761 -2.97331,0.90633 -5.65221,1.70336 -5.95312,1.77117 -1.00047,0.22546 -1.34091,0.31608 -1.34091,0.35695 0,0.0222 -0.1786,0.0796 -0.39688,0.12735 -1.21179,0.26522 -1.82406,0.41307 -2.77812,0.67082 -0.58208,0.15727 -1.71318,0.43895 -2.51354,0.62593 -4.05017,0.9462 -6.49068,1.61099 -6.56553,1.78845 -0.0458,0.10853 -0.24845,0.1339 -0.45035,0.0564 -0.2019,-0.0775 -0.51729,-0.0481 -0.7008,0.0654 -0.18354,0.11343 -0.73628,0.24754 -1.22833,0.29803 -0.49205,0.0505 -1.86563,0.33424 -3.05242,0.6306 -1.18679,0.29636 -2.5745,0.64135 -3.08382,0.76663 -0.50933,0.12531 -1.64042,0.30798 -2.51354,0.40601 -0.87313,0.098 -1.70657,0.27178 -1.85209,0.38621 -0.2273,0.17872 -2.37342,0.61285 -4.63021,0.9366 -2.14698,0.308 -8.66208,1.48492 -8.99583,1.62507 -0.21828,0.0916 -0.55795,0.13983 -0.75486,0.10705 -0.19687,-0.0328 -0.55406,0.0284 -0.79375,0.13597 -0.50604,0.22709 -1.45901,0.36814 -2.4689,0.36547 -0.39061,0 -0.78759,0.12329 -0.88215,0.27633 -0.0946,0.15303 -0.40576,0.20402 -0.69154,0.11332 -0.2858,-0.0907 -0.66273,-0.0465 -0.83765,0.0982 -0.17491,0.1447 -0.61568,0.26765 -0.97948,0.27323 -0.36381,0.006 -1.07818,0.0735 -1.5875,0.151 -0.50933,0.0775 -1.34276,0.19103 -1.85209,0.25236 -2.59826,0.31284 -11.29704,1.563 -11.64166,1.67307 -0.21828,0.0697 -0.87313,0.16393 -1.45521,0.20936 -1.6619,0.12965 -4.16909,0.40262 -4.89479,0.5329 -0.36381,0.0653 -1.37584,0.18351 -2.24896,0.26265 -1.44449,0.13094 -5.15903,0.53494 -7.14375,0.77695 -0.43656,0.0532 -1.86531,0.18201 -3.175,0.28615 -1.30969,0.10414 -2.49968,0.25953 -2.64443,0.34533 -0.14476,0.0858 -0.91866,0.19156 -1.71979,0.23506 -1.56097,0.0847 -3.302,0.23222 -5.42536,0.45958 -1.29181,0.13832 -2.58427,0.2399 -6.35,0.49905 -1.01865,0.0701 -3.07248,0.21445 -4.56407,0.32081 l -2.71191,0.19343 V 1.9933971 c 0,53.0460409 0.0953,82.9036409 0.27083,85.2241409 0.37338,4.9366 1.64444,11.38949 2.43642,12.36927 0.14703,0.1819 0.19489,0.33073 0.10636,0.33073 -0.19733,0 0.85826,2.913782 1.22211,3.373442 0.14396,0.1819 0.17635,0.33073 0.0719,0.33073 -0.1044,0 0.13367,0.56554 0.52906,1.25677 2.32651,4.06728 4.74723,6.8177 7.57433,8.60591 1.59065,1.00613 2.01139,1.81539 1.66384,3.20024 l -0.17455,0.69541 H 204.4253 c -20.915,0 -38.09841,-0.0712 -38.18538,-0.15817 z m 76.00537,-228.99402 c 2.69214,-0.15272 5.96636,-0.38306 7.27605,-0.51186 1.30968,-0.12878 3.45281,-0.31549 4.7625,-0.4149 1.30968,-0.0994 3.81,-0.40584 5.55625,-0.68101 1.74625,-0.27516 3.53218,-0.55462 3.96875,-0.62103 0.43656,-0.0664 1.21046,-0.18849 1.71979,-0.27125 0.50932,-0.0828 1.25346,-0.18891 1.65364,-0.23585 0.40019,-0.0469 0.8169,-0.11885 0.92605,-0.15975 0.10914,-0.0409 0.49609,-0.1069 0.85989,-0.14661 2.24406,-0.24495 3.34693,-0.45508 3.63466,-0.69252 0.18005,-0.14859 0.49583,-0.2055 0.70173,-0.1265 0.2059,0.079 0.4464,0.0716 0.53446,-0.0164 0.088,-0.088 0.42709,-0.18171 0.75345,-0.20817 0.67024,-0.0543 0.95774,-0.11023 6.12672,-1.19142 2.04991,-0.42876 4.79867,-1.08543 6.10836,-1.45926 1.30968,-0.3738 2.64914,-0.67405 2.97656,-0.66717 0.32742,0.007 0.59531,-0.11229 0.59531,-0.26477 0,-0.15248 0.1166,-0.20516 0.25913,-0.11708 0.28679,0.17725 2.33575,-0.34776 2.83814,-0.7272 0.17552,-0.13256 0.44341,-0.16423 0.59531,-0.0704 0.1519,0.0939 0.27617,0.0627 0.27617,-0.0692 0,-0.13198 0.33068,-0.24935 0.7348,-0.26083 0.40415,-0.0114 1.32689,-0.25426 2.05052,-0.53951 0.72366,-0.28522 1.43479,-0.52753 1.58031,-0.53848 0.728,-0.0547 10.16584,-3.1669 12.03854,-3.96984 0.50932,-0.21836 1.09043,-0.42727 1.29135,-0.46421 0.20092,-0.0369 0.49263,-0.19449 0.64823,-0.35009 0.1556,-0.15561 0.46074,-0.28292 0.67805,-0.28292 0.42481,0 8.27473,-3.15668 8.49487,-3.41602 0.0728,-0.0857 0.31088,-0.18931 0.52916,-0.2302 0.61315,-0.11484 8.2395,-3.67778 10.88438,-5.08503 4.86719,-2.58967 7.00122,-3.79865 7.16938,-4.06164 0.10692,-0.1672 0.19622,-0.21795 0.19844,-0.11279 0.005,0.23834 5.51008,-3.07011 8.29337,-4.98423 1.1394,-0.78357 2.13481,-1.42468 2.21205,-1.42468 0.23955,0 5.10905,-3.51246 5.10905,-3.68526 0,-0.0897 0.42492,-0.39199 0.94429,-0.67169 0.51936,-0.27969 1.05932,-0.72348 1.19994,-0.9862 0.1406,-0.26273 0.39029,-0.47768 0.55486,-0.47768 0.16457,0 0.48781,-0.17879 0.71829,-0.39732 0.23051,-0.21853 1.07392,-0.89425 1.87428,-1.5016 2.55104,-1.93584 8.22264,-7.07884 11.77396,-10.67661 3.76172,-3.81092 8.50088,-9.11558 8.15523,-9.12835 -0.11975,-0.004 -0.013,-0.12739 0.2373,-0.27326 1.47622,-0.86041 11.89048,-16.2646 13.32527,-19.70993 0.23891,-0.57373 0.52525,-1.10267 0.63629,-1.17543 0.26517,-0.17376 2.68415,-5.02026 3.4335,-6.87917 0.32266,-0.80036 0.74126,-1.75286 0.93022,-2.11666 1.53477,-2.95446 5.46608,-14.41857 6.87501,-20.0482 1.93691,-7.73918 3.35355,-15.9023 3.72965,-21.49139 0.0735,-1.0914 0.20558,-2.52015 0.29366,-3.175 0.58081,-4.31903 0.56274,-24.51261 -0.0257,-28.575 -0.0738,-0.50932 -0.20598,-1.69994 -0.29382,-2.64583 -0.40736,-4.3873 -1.94382,-12.21651 -3.27118,-16.66875 -1.1507,-3.8597 -1.4156,-4.645 -1.67351,-4.96094 -0.14849,-0.1819 -0.20122,-0.33073 -0.11716,-0.33073 0.38634,0 -3.69962,-9.48556 -4.43688,-10.30022 -0.22751,-0.25138 -0.41365,-0.55983 -0.41365,-0.68543 0,-0.28976 -1.88931,-3.52265 -3.14402,-5.37992 -0.52636,-0.77914 -1.08992,-1.64806 -1.25232,-1.93092 -0.62704,-1.09204 -4.23225,-5.3574 -6.22774,-7.36809 -1.48947,-1.50084 -3.34391,-3.18798 -5.17406,-4.70728 -1.39692,-1.15973 -6.36995,-4.55314 -6.67252,-4.55314 -0.13161,0 -0.27898,-0.10419 -0.32751,-0.23153 -0.11604,-0.3047 -3.27062,-1.88513 -3.76274,-1.88513 -0.21032,0 -0.42302,-0.12189 -0.47268,-0.27085 -0.0813,-0.24385 -7.45162,-3.34073 -8.41854,-3.53733 -0.39764,-0.0808 -0.96599,-0.27474 -2.00559,-0.68425 -1.13964,-0.4489 -7.87191,-1.88119 -8.21801,-1.74838 -0.19892,0.0763 -0.36166,0.0428 -0.36166,-0.0745 0,-0.2777 -6.32548,-1.07021 -10.71563,-1.34254 -4.32131,-0.26806 -115.22598,-0.21886 -115.22601,0.0511 -3e-5,0.10914 -3e-5,53.0509 -3e-5,117.64835 v 117.44989 l 4.29948,-0.11216 c 2.36476,-0.0617 6.50218,-0.23712 9.19431,-0.38986 z m 35.16652,-93.30875 c -0.0127,-44.493 -0.0665,-81.5512 -0.1196,-82.35157 -0.93315,-14.06441 -3.99846,-22.28703 -10.37508,-27.83105 -0.44992,-0.39119 -1.3036,-1.01776 -1.89703,-1.39238 -0.59344,-0.37462 -1.09384,-0.79869 -1.11205,-0.94238 -0.13946,-1.10168 -0.093,-2.03287 0.11539,-2.31179 0.1964,-0.26292 12.79041,-0.33073 61.42299,-0.33073 h 61.17595 l 1.71297,2.18281 c 0.94215,1.20055 1.99744,2.59953 2.34508,3.10886 0.34764,0.50932 0.69734,0.98557 0.77711,1.05833 0.0798,0.0728 0.3742,0.54901 0.65429,1.05833 0.28008,0.50933 0.57774,0.98558 0.66145,1.05834 0.33184,0.28839 2.95373,5.58579 4.09922,8.28225 1.38213,3.2535 3.59362,9.7184 3.59362,10.50532 0,0.52112 -0.29382,0.52573 -37.76927,0.59225 l -37.76926,0.0671 -0.0666,76.23413 c -0.0572,65.48175 -0.1196,76.27811 -0.44239,76.54599 -0.20669,0.17153 -0.95062,0.53129 -1.65319,0.79945 -2.42025,0.92378 -8.95083,3.76626 -9.20168,4.00509 -0.13824,0.13156 -0.39838,0.23925 -0.57809,0.23925 -0.1797,0 -0.60237,0.1048 -0.93927,0.23289 -0.33689,0.12809 -0.7003,0.25072 -0.80756,0.27252 -0.10729,0.0218 -0.73236,0.26996 -1.38906,0.55146 -0.65672,0.28151 -1.19404,0.45378 -1.19404,0.38284 0,-0.0709 -0.26789,0.0373 -0.59531,0.24059 -0.32742,0.20328 -2.20266,0.87675 -4.16719,1.49663 -1.96453,0.61986 -3.6118,1.23095 -3.66062,1.35795 -0.0488,0.12701 -0.18211,0.17321 -0.29625,0.10268 -0.11411,-0.0705 -0.96713,0.11732 -1.89561,0.41744 -2.47893,0.80129 -2.47655,0.80055 -2.54436,0.79335 -0.0343,-0.004 -0.55758,0.16804 -1.16274,0.38156 -0.60515,0.21352 -1.35096,0.44085 -1.65732,0.50517 -0.69689,0.14631 -1.1307,0.25953 -3.59977,0.93945 -1.0914,0.30054 -3.05593,0.78925 -4.36562,1.08598 -2.73868,0.62056 -7.06612,1.55824 -7.19124,1.55824 -0.0466,0 -0.0952,-36.40336 -0.10787,-80.89635 z"
       id="path1604" /></g></svg>
