<?xml version="1.0" encoding="UTF-8" standalone="no"?>
<!-- Created with Inkscape (http://www.inkscape.org/) -->

<svg
   width="9.2860718mm"
   height="9.5288086mm"
   viewBox="0 0 9.2860718 9.5288086"
   version="1.1"
   id="svg5"
   xml:space="preserve"
   xmlns:inkscape="http://www.inkscape.org/namespaces/inkscape"
   xmlns:sodipodi="http://sodipodi.sourceforge.net/DTD/sodipodi-0.dtd"
   xmlns="http://www.w3.org/2000/svg"
   xmlns:svg="http://www.w3.org/2000/svg"><sodipodi:namedview
     id="namedview7"
     pagecolor="#ffffff"
     bordercolor="#000000"
     borderopacity="0.25"
     inkscape:showpageshadow="2"
     inkscape:pageopacity="0.0"
     inkscape:pagecheckerboard="0"
     inkscape:deskcolor="#d1d1d1"
     inkscape:document-units="mm"
     showgrid="false" /><defs
     id="defs2" /><g
     inkscape:label="Capa 1"
     inkscape:groupmode="layer"
     id="layer1"
     transform="translate(-780.02254,-655.1815)"><path
       style="fill:#ffffff;stroke-width:0.042201"
       d="m 780.20101,664.68186 c -0.13367,-0.0538 -0.17846,-0.25853 -0.17846,-0.81577 0,-0.57343 0.0441,-0.7611 0.19179,-0.81781 0.0376,-0.0144 0.23437,-0.0263 0.43732,-0.0263 0.33115,0 0.37841,0.0106 0.46076,0.0976 0.086,0.0915 0.0918,0.13825 0.0918,0.75227 0,0.62966 -0.004,0.65807 -0.0976,0.74634 -0.0859,0.0807 -0.14305,0.0914 -0.47477,0.0884 -0.20739,-10e-4 -0.40122,-0.0132 -0.43072,-0.0249 z m 1.95078,-0.0753 -0.10356,-0.10355 v -1.05887 -1.05886 l 0.10356,-0.10355 c 0.0952,-0.0952 0.13543,-0.10356 0.49904,-0.10356 0.60625,0 0.57899,-0.0602 0.57899,1.27623 v 1.0809 l -0.11121,0.0875 c -0.0935,0.0736 -0.1707,0.0875 -0.48722,0.0875 -0.34298,0 -0.38515,-0.009 -0.47961,-0.10356 z m 2.02564,0 -0.10356,-0.10355 v -1.72647 c 0,-2.1034 -0.0466,-1.94885 0.58652,-1.94885 0.64593,0 0.5951,-0.1653 0.5951,1.93532 v 1.74 l -0.10356,0.10355 c -0.0948,0.0949 -0.13617,0.10356 -0.48722,0.10356 -0.35106,0 -0.39244,-0.009 -0.48723,-0.10356 z m 2.02564,0 -0.10356,-0.10355 v -2.48833 c 0,-1.36858 0.0119,-2.51907 0.0263,-2.55664 0.047,-0.12229 0.25147,-0.19179 0.5646,-0.19179 0.31313,0 0.51766,0.0695 0.5646,0.19179 0.0144,0.0376 0.0263,1.18806 0.0263,2.55664 v 2.48833 l -0.10356,0.10355 c -0.0947,0.0949 -0.13617,0.10356 -0.48722,0.10356 -0.35106,0 -0.39244,-0.009 -0.48723,-0.10356 z m 2.03327,0.0161 -0.11121,-0.0875 v -3.30666 -3.30665 l 0.11595,-0.0912 c 0.10369,-0.0815 0.15768,-0.0897 0.51018,-0.0769 0.61824,0.0224 0.55553,-0.37064 0.55553,3.48136 v 3.26781 l -0.10356,0.10356 c -0.0945,0.0945 -0.13663,0.10356 -0.47962,0.10356 -0.31652,0 -0.39364,-0.0139 -0.48722,-0.0875 z m -7.69781,-2.70835 c -0.0413,-0.0507 -0.26277,-0.55543 -0.26277,-0.59879 0,-0.0119 0.30012,-0.17287 0.66694,-0.3584 1.50466,-0.76102 2.98474,-1.81482 4.18194,-2.9775 0.60863,-0.59107 1.22806,-1.27466 1.22806,-1.35527 0,-0.0273 -0.11385,-0.12308 -0.25285,-0.21263 -0.14946,-0.0963 -0.25298,-0.19301 -0.25319,-0.23656 -2.3e-4,-0.0539 0.24973,-0.19882 0.93225,-0.54035 0.51293,-0.25667 0.96396,-0.46058 1.00227,-0.45312 0.0554,0.0106 0.0675,0.0567 0.0594,0.22384 -0.0714,1.4543 -0.10764,1.90381 -0.1576,1.95567 -0.0463,0.048 -0.0967,0.0293 -0.31062,-0.11609 -0.14043,-0.0954 -0.28011,-0.17228 -0.3104,-0.1709 -0.0303,10e-4 -0.188,0.16422 -0.35048,0.36187 -0.40996,0.49874 -1.59262,1.64856 -2.16352,2.10343 -0.71273,0.5679 -1.42061,1.06221 -2.13411,1.49025 -0.6099,0.3659 -1.70131,0.93727 -1.79034,0.93727 -0.0231,0 -0.0612,-0.0237 -0.085,-0.0528 z"
       id="path1665"
       sodipodi:nodetypes="sssssssssscccssscsssscssscsssscssssscsssscccssscssssssssscssssscsssss"
       inkscape:export-filename="PROGRESO.svg"
       inkscape:export-xdpi="96"
       inkscape:export-ydpi="96" /></g></svg>
